<svg width="27" height="27" viewBox="0 0 27 27" fill="none" xmlns="http://www.w3.org/2000/svg">
<path d="M13.8195 13.2891L12.3079 14.8006C11.4717 15.6368 11.4717 16.9983 12.3079 17.8344C13.1441 18.6706 14.5055 18.6706 15.3417 17.8344L17.7216 15.4546C19.3939 13.7823 19.3939 11.0701 17.7216 9.38705C16.0492 7.71473 13.337 7.71473 11.654 9.38705L9.05978 11.9813C7.6233 13.4178 7.6233 15.744 9.05978 17.1805" stroke="white" stroke-width="1.608" stroke-linecap="round" stroke-linejoin="round"/>
<path d="M13.6048 24.2213C19.5253 24.2213 24.3248 19.4217 24.3248 13.5013C24.3248 7.58076 19.5253 2.78125 13.6048 2.78125C7.68427 2.78125 2.88477 7.58076 2.88477 13.5013C2.88477 19.4217 7.68427 24.2213 13.6048 24.2213Z" stroke="white" stroke-width="1.608" stroke-linecap="round" stroke-linejoin="round"/>
</svg>
