<svg width="21" height="21" viewBox="0 0 21 21" fill="none" xmlns="http://www.w3.org/2000/svg">
<path d="M1.76053 3.86563C2.42719 0.982292 6.76886 0.982292 7.42719 3.86563C7.81886 5.55729 6.74386 6.99063 5.81053 7.88229C5.12719 8.53229 4.05219 8.52396 3.36886 7.88229C2.44386 6.99063 1.36886 5.55729 1.76053 3.86563Z" stroke="#1E293B" stroke-width="1.5"/>
<path d="M12.5945 13.8656C13.2611 10.9823 17.6278 10.9823 18.2945 13.8656C18.6861 15.5573 17.6111 16.9906 16.6695 17.8823C15.9861 18.5323 14.9028 18.524 14.2195 17.8823C13.2778 16.9906 12.2028 15.5573 12.5945 13.8656Z" stroke="#1E293B" stroke-width="1.5"/>
<path d="M10.0346 4.19531H12.2679C13.8096 4.19531 14.5262 6.10365 13.3679 7.12031L6.70958 12.9453C5.55125 13.9536 6.26791 15.862 7.80125 15.862H10.0346" stroke="#1E293B" stroke-width="1.5" stroke-linecap="round" stroke-linejoin="round"/>
<path d="M4.60627 4.61198H4.6159" stroke="#1E293B" stroke-width="1.5" stroke-linecap="round" stroke-linejoin="round"/>
<path d="M15.4403 14.612H15.4499" stroke="#292D32" stroke-width="1.5" stroke-linecap="round" stroke-linejoin="round"/>
</svg>
