<svg width="21" height="21" viewBox="0 0 21 21" fill="none" xmlns="http://www.w3.org/2000/svg">
<path d="M10.3093 1.71875C5.57592 1.71875 1.71875 5.57592 1.71875 10.3093C1.71875 15.0427 5.57592 18.8999 10.3093 18.8999C15.0427 18.8999 18.8999 15.0427 18.8999 10.3093C18.8999 5.57592 15.0427 1.71875 10.3093 1.71875ZM12.7061 10.7646L9.67363 13.7971C9.54477 13.926 9.38155 13.9861 9.21833 13.9861C9.05511 13.9861 8.89189 13.926 8.76303 13.7971C8.5139 13.548 8.5139 13.1356 8.76303 12.8865L11.3402 10.3093L8.76303 7.73216C8.5139 7.48303 8.5139 7.07068 8.76303 6.82156C9.01216 6.57243 9.4245 6.57243 9.67363 6.82156L12.7061 9.85403C12.9638 10.1032 12.9638 10.5155 12.7061 10.7646Z" fill="white"/>
</svg>
