<svg width="40" height="41" viewBox="0 0 40 41" fill="none" xmlns="http://www.w3.org/2000/svg">
<path d="M24.126 10.7969C24.6122 10.797 25.0938 10.893 25.543 11.0791C25.9922 11.2653 26.4013 11.5379 26.7451 11.8818C27.0889 12.2258 27.3609 12.6347 27.5469 13.084C27.7328 13.5332 27.8292 14.0148 27.8291 14.501C27.829 14.9873 27.7331 15.4697 27.5469 15.9189C27.3608 16.3678 27.0877 16.7755 26.7441 17.1191L26.7285 17.1338V17.1348L17.7471 25.7803C17.645 25.8784 17.5244 25.9552 17.3926 26.0068C17.2608 26.0585 17.12 26.0838 16.9785 26.0811C16.837 26.0783 16.6971 26.0479 16.5674 25.9912C16.4377 25.9345 16.3208 25.852 16.2227 25.75C16.1245 25.6479 16.0468 25.5274 15.9951 25.3955C15.9436 25.2638 15.9181 25.1229 15.9209 24.9814C15.9237 24.8401 15.9551 24.7009 16.0117 24.5713C16.0684 24.4415 16.1499 24.3237 16.252 24.2256L25.2246 15.5898L25.2256 15.5889C25.5148 15.2978 25.6761 14.9035 25.6748 14.4932C25.6735 14.0829 25.5097 13.6896 25.2188 13.4004C25.0747 13.2573 24.9036 13.1445 24.7158 13.0674C24.5279 12.9902 24.3262 12.9505 24.123 12.9512C23.713 12.9525 23.3204 13.1165 23.0312 13.4072L13.8281 22.582C13.1866 23.2239 12.826 24.0944 12.8262 25.002C12.8263 25.4513 12.9149 25.8964 13.0869 26.3115C13.259 26.7267 13.5113 27.1042 13.8291 27.4219C14.1469 27.7395 14.5244 27.9912 14.9395 28.1631C15.3547 28.335 15.8006 28.4239 16.25 28.4238C17.1574 28.4235 18.0274 28.0626 18.6689 27.4209L26.3623 19.7334C26.4626 19.6331 26.5819 19.5533 26.7129 19.499C26.8438 19.4448 26.9843 19.417 27.126 19.417C27.2676 19.417 27.4082 19.4449 27.5391 19.499C27.67 19.5533 27.7894 19.6332 27.8896 19.7334C27.9899 19.8337 28.0697 19.9529 28.124 20.084C28.1783 20.215 28.206 20.3553 28.2061 20.4971C28.2061 20.6388 28.1782 20.7792 28.124 20.9102C28.0711 21.0378 27.9931 21.1533 27.8965 21.252L27.8955 21.2529L27.8857 21.2617L20.1934 28.9492C19.147 29.9952 17.7276 30.5832 16.248 30.583C14.7686 30.5827 13.3497 29.9944 12.3037 28.9482C11.2577 27.9019 10.6697 26.4825 10.6699 25.0029C10.6702 23.5234 11.2584 22.1046 12.3047 21.0586L21.5068 11.8809C22.2015 11.1866 23.1438 10.7967 24.126 10.7969Z" fill="#1E293B" stroke="#1E293B" stroke-width="0.09375"/>
</svg>
