<svg width="25" height="25" viewBox="0 0 25 25" fill="none" xmlns="http://www.w3.org/2000/svg">
<path d="M18.5421 6.92951C18.3545 6.74203 18.1002 6.63672 17.8351 6.63672C17.5699 6.63672 17.3156 6.74203 17.1281 6.92951L12.5421 11.5155L7.95605 6.92951C7.76853 6.74203 7.51422 6.63672 7.24905 6.63672C6.98389 6.63672 6.72958 6.74203 6.54205 6.92951C6.35458 7.11703 6.24927 7.37134 6.24927 7.63651C6.24927 7.90167 6.35458 8.15598 6.54205 8.34351L11.1281 12.9295L6.54205 17.5155C6.35458 17.703 6.24927 17.9573 6.24927 18.2225C6.24927 18.4877 6.35458 18.742 6.54205 18.9295C6.72958 19.117 6.98389 19.2223 7.24905 19.2223C7.51422 19.2223 7.76853 19.117 7.95605 18.9295L12.5421 14.3435L17.1281 18.9295C17.3156 19.117 17.5699 19.2223 17.8351 19.2223C18.1002 19.2223 18.3545 19.117 18.5421 18.9295C18.7295 18.742 18.8348 18.4877 18.8348 18.2225C18.8348 17.9573 18.7295 17.703 18.5421 17.5155L13.9561 12.9295L18.5421 8.34351C18.7295 8.15598 18.8348 7.90167 18.8348 7.63651C18.8348 7.37134 18.7295 7.11703 18.5421 6.92951Z" fill="white"/>
</svg>
