<svg width="30" height="30" viewBox="0 0 30 30" fill="none" xmlns="http://www.w3.org/2000/svg">
<path d="M21.9133 9.7125C21.8258 9.7 21.7383 9.7 21.6508 9.7125C19.7133 9.65 18.1758 8.0625 18.1758 6.1125C18.1758 4.125 19.7883 2.5 21.7883 2.5C23.7758 2.5 25.4008 4.1125 25.4008 6.1125C25.3883 8.0625 23.8508 9.65 21.9133 9.7125Z" fill="#1E293B"/>
<path d="M25.9875 18.3736C24.5875 19.3111 22.625 19.6611 20.8125 19.4236C21.2875 18.3986 21.5375 17.2611 21.55 16.0611C21.55 14.8111 21.275 13.6236 20.75 12.5861C22.6 12.3361 24.5625 12.6861 25.975 13.6236C27.95 14.9236 27.95 17.0611 25.9875 18.3736Z" fill="#1E293B"/>
<path d="M8.04922 9.7125C8.13672 9.7 8.22422 9.7 8.31172 9.7125C10.2492 9.65 11.7867 8.0625 11.7867 6.1125C11.7867 4.1125 10.1742 2.5 8.17422 2.5C6.18672 2.5 4.57422 4.1125 4.57422 6.1125C4.57422 8.0625 6.11172 9.65 8.04922 9.7125Z" fill="#1E293B"/>
<path d="M8.18789 16.0613C8.18789 17.2738 8.45039 18.4238 8.92539 19.4613C7.16289 19.6488 5.32539 19.2738 3.97539 18.3863C2.00039 17.0738 2.00039 14.9363 3.97539 13.6238C5.31289 12.7238 7.20039 12.3613 8.97539 12.5613C8.46289 13.6113 8.18789 14.7988 8.18789 16.0613Z" fill="#1E293B"/>
<path d="M15.15 19.8375C15.05 19.825 14.9375 19.825 14.825 19.8375C12.525 19.7625 10.6875 17.875 10.6875 15.55C10.7 13.175 12.6125 11.25 15 11.25C17.375 11.25 19.3 13.175 19.3 15.55C19.2875 17.875 17.4625 19.7625 15.15 19.8375Z" fill="#1E293B"/>
<path d="M11.0875 22.4219C9.2 23.6844 9.2 25.7594 11.0875 27.0094C13.2375 28.4469 16.7625 28.4469 18.9125 27.0094C20.8 25.7469 20.8 23.6719 18.9125 22.4219C16.775 20.9844 13.25 20.9844 11.0875 22.4219Z" fill="#1E293B"/>
</svg>
