<svg width="30" height="30" viewBox="0 0 30 30" fill="none" xmlns="http://www.w3.org/2000/svg">
<path d="M20.9378 4.45V2.5C20.9378 1.9875 20.5128 1.5625 20.0003 1.5625C19.4878 1.5625 19.0628 1.9875 19.0628 2.5V4.375H10.9378V2.5C10.9378 1.9875 10.5128 1.5625 10.0003 1.5625C9.48779 1.5625 9.06279 1.9875 9.06279 2.5V4.45C5.68779 4.7625 4.05029 6.775 3.80029 9.7625C3.77529 10.125 4.07529 10.425 4.42529 10.425H25.5753C25.9378 10.425 26.2378 10.1125 26.2003 9.7625C25.9503 6.775 24.3128 4.7625 20.9378 4.45Z" fill="#1E293B"/>
<path d="M25 12.2969H5C4.3125 12.2969 3.75 12.8594 3.75 13.5469V21.2469C3.75 24.9969 5.625 27.4969 10 27.4969H20C24.375 27.4969 26.25 24.9969 26.25 21.2469V13.5469C26.25 12.8594 25.6875 12.2969 25 12.2969ZM11.5125 22.7594C11.45 22.8094 11.3875 22.8719 11.325 22.9094C11.25 22.9594 11.175 22.9969 11.1 23.0219C11.025 23.0594 10.95 23.0844 10.875 23.0969C10.7875 23.1094 10.7125 23.1219 10.625 23.1219C10.4625 23.1219 10.3 23.0844 10.15 23.0219C9.9875 22.9594 9.8625 22.8719 9.7375 22.7594C9.5125 22.5219 9.375 22.1969 9.375 21.8719C9.375 21.5469 9.5125 21.2219 9.7375 20.9844C9.8625 20.8719 9.9875 20.7844 10.15 20.7219C10.375 20.6219 10.625 20.5969 10.875 20.6469C10.95 20.6594 11.025 20.6844 11.1 20.7219C11.175 20.7469 11.25 20.7844 11.325 20.8344C11.3875 20.8844 11.45 20.9344 11.5125 20.9844C11.7375 21.2219 11.875 21.5469 11.875 21.8719C11.875 22.1969 11.7375 22.5219 11.5125 22.7594ZM11.5125 18.3844C11.275 18.6094 10.95 18.7469 10.625 18.7469C10.3 18.7469 9.975 18.6094 9.7375 18.3844C9.5125 18.1469 9.375 17.8219 9.375 17.4969C9.375 17.1719 9.5125 16.8469 9.7375 16.6094C10.0875 16.2594 10.6375 16.1469 11.1 16.3469C11.2625 16.4094 11.4 16.4969 11.5125 16.6094C11.7375 16.8469 11.875 17.1719 11.875 17.4969C11.875 17.8219 11.7375 18.1469 11.5125 18.3844ZM15.8875 22.7594C15.65 22.9844 15.325 23.1219 15 23.1219C14.675 23.1219 14.35 22.9844 14.1125 22.7594C13.8875 22.5219 13.75 22.1969 13.75 21.8719C13.75 21.5469 13.8875 21.2219 14.1125 20.9844C14.575 20.5219 15.425 20.5219 15.8875 20.9844C16.1125 21.2219 16.25 21.5469 16.25 21.8719C16.25 22.1969 16.1125 22.5219 15.8875 22.7594ZM15.8875 18.3844C15.825 18.4344 15.7625 18.4844 15.7 18.5344C15.625 18.5844 15.55 18.6219 15.475 18.6469C15.4 18.6844 15.325 18.7094 15.25 18.7219C15.1625 18.7344 15.0875 18.7469 15 18.7469C14.675 18.7469 14.35 18.6094 14.1125 18.3844C13.8875 18.1469 13.75 17.8219 13.75 17.4969C13.75 17.1719 13.8875 16.8469 14.1125 16.6094C14.225 16.4969 14.3625 16.4094 14.525 16.3469C14.9875 16.1469 15.5375 16.2594 15.8875 16.6094C16.1125 16.8469 16.25 17.1719 16.25 17.4969C16.25 17.8219 16.1125 18.1469 15.8875 18.3844ZM20.2625 22.7594C20.025 22.9844 19.7 23.1219 19.375 23.1219C19.05 23.1219 18.725 22.9844 18.4875 22.7594C18.2625 22.5219 18.125 22.1969 18.125 21.8719C18.125 21.5469 18.2625 21.2219 18.4875 20.9844C18.95 20.5219 19.8 20.5219 20.2625 20.9844C20.4875 21.2219 20.625 21.5469 20.625 21.8719C20.625 22.1969 20.4875 22.5219 20.2625 22.7594ZM20.2625 18.3844C20.2 18.4344 20.1375 18.4844 20.075 18.5344C20 18.5844 19.925 18.6219 19.85 18.6469C19.775 18.6844 19.7 18.7094 19.625 18.7219C19.5375 18.7344 19.45 18.7469 19.375 18.7469C19.05 18.7469 18.725 18.6094 18.4875 18.3844C18.2625 18.1469 18.125 17.8219 18.125 17.4969C18.125 17.1719 18.2625 16.8469 18.4875 16.6094C18.6125 16.4969 18.7375 16.4094 18.9 16.3469C19.125 16.2469 19.375 16.2219 19.625 16.2719C19.7 16.2844 19.775 16.3094 19.85 16.3469C19.925 16.3719 20 16.4094 20.075 16.4594C20.1375 16.5094 20.2 16.5594 20.2625 16.6094C20.4875 16.8469 20.625 17.1719 20.625 17.4969C20.625 17.8219 20.4875 18.1469 20.2625 18.3844Z" fill="#1E293B"/>
</svg>
