<svg width="21" height="21" viewBox="0 0 21 21" fill="none" xmlns="http://www.w3.org/2000/svg">
<path d="M10.4606 3.27148C6.77871 3.27148 3.79395 6.25625 3.79395 9.93815V10.211C3.79395 11.6157 4.23734 12.9765 5.04926 14.1048H5.04395L5.0631 14.124C5.22904 14.3528 5.4102 14.5721 5.60595 14.7801C5.90092 15.0935 10.4606 18.6882 10.4606 18.6882C11.126 18.3492 14.7723 15.357 15.3153 14.7801C15.5131 14.5699 15.6959 14.3482 15.8634 14.1167L15.8773 14.1048H15.8719C16.6839 12.9765 17.1273 11.6157 17.1273 10.211V9.93815C17.1273 6.25625 14.1425 3.27148 10.4606 3.27148Z" stroke="#DDE5EB" stroke-width="1.5" stroke-linejoin="round"/>
<path d="M13.1696 9.9388C13.1696 8.44303 11.957 7.23047 10.4613 7.23047C8.96549 7.23047 7.75293 8.44303 7.75293 9.9388C7.75293 11.4346 8.96549 12.6471 10.4613 12.6471C11.957 12.6471 13.1696 11.4346 13.1696 9.9388Z" stroke="#DDE5EB" stroke-width="1.5"/>
</svg>
