<svg width="18" height="18" viewBox="0 0 18 18" fill="none" xmlns="http://www.w3.org/2000/svg">
<path d="M16.0985 8.05341C16.0628 7.68931 15.7558 7.41801 15.3917 7.41801H10.0016C9.60893 7.41801 9.28767 7.73927 9.28767 8.13193V9.35276C9.28767 9.74541 9.60893 10.0667 10.0016 10.0667H13.2214C13.1429 10.7235 12.7145 11.7158 11.765 12.3798C11.1581 12.801 10.3514 13.0937 9.28767 13.0937C9.23769 13.0937 9.19486 13.0937 9.14488 13.0866C7.32438 13.0294 5.78231 11.8086 5.22545 10.1309C5.07552 9.68116 4.98985 9.20996 4.98985 8.71735C4.98985 8.22475 5.07552 7.74641 5.21831 7.30378C5.26114 7.17527 5.31112 7.04678 5.36823 6.91828C6.02504 5.44046 7.46003 4.39812 9.14488 4.34815C9.18772 4.34101 9.23769 4.341 9.28767 4.341C10.3086 4.341 11.0725 4.67654 11.6079 5.04778C11.8863 5.24054 12.2576 5.19771 12.5003 4.96211L13.4927 3.99119C13.8068 3.6842 13.7782 3.16302 13.4213 2.90601C12.2861 2.07072 10.9011 1.57812 9.28767 1.57812C9.23769 1.57812 9.19486 1.57813 9.14488 1.58527C6.41056 1.63525 4.06175 3.22015 2.91233 5.51185C2.42687 6.48278 2.14844 7.56794 2.14844 8.71735C2.14844 9.86677 2.42687 10.9519 2.91233 11.9229H2.91948C4.06889 14.2146 6.4177 15.7995 9.14488 15.8494C9.19486 15.8566 9.23769 15.8566 9.28767 15.8566C11.2153 15.8566 12.8359 15.2212 14.0138 14.1289C15.3632 12.8795 16.1413 11.0519 16.1413 8.87442C16.1413 8.56743 16.127 8.30328 16.0985 8.05341Z" fill="white"/>
</svg>
