<svg width="21" height="21" viewBox="0 0 21 21" fill="none" xmlns="http://www.w3.org/2000/svg">
  <path d="M15.0352 15.7448H14.4018C13.7352 15.7448 13.1018 16.0031 12.6352 16.4698L11.2102 17.8782C10.5602 18.5198 9.50182 18.5198 8.85182 17.8782L7.42682 16.4698C6.96015 16.0031 6.31849 15.7448 5.66016 15.7448H5.03516C3.65182 15.7448 2.53516 14.6365 2.53516 13.2698V4.1781C2.53516 2.81143 3.65182 1.70312 5.03516 1.70312H15.0352C16.4185 1.70312 17.5352 2.81143 17.5352 4.1781V13.2698C17.5352 14.6281 16.4185 15.7448 15.0352 15.7448Z" stroke="white" stroke-width="1.5" stroke-miterlimit="10" stroke-linecap="round" stroke-linejoin="round"/>
  <path d="M5.86914 7.6662C5.86914 6.8912 6.50248 6.25781 7.27748 6.25781C8.05248 6.25781 8.68581 6.8912 8.68581 7.6662C8.68581 9.23287 6.4608 9.39953 5.96914 10.8912C5.86914 11.1995 6.12747 11.5079 6.45247 11.5079H8.68581" stroke="white" stroke-width="1.5" stroke-linecap="round" stroke-linejoin="round"/>
  <path d="M13.4026 11.5012V6.74292C13.4026 6.52626 13.2609 6.33454 13.0526 6.27621C12.8443 6.21788 12.6193 6.30121 12.5026 6.48454C11.9026 7.45121 11.2526 8.55122 10.6859 9.51789C10.5943 9.67622 10.5943 9.88456 10.6859 10.0429C10.7776 10.2012 10.9526 10.3012 11.1443 10.3012H14.2026" stroke="white" stroke-width="1.5" stroke-linecap="round" stroke-linejoin="round"/>
</svg>