<svg width="65" height="65" viewBox="0 0 65 65" fill="none" xmlns="http://www.w3.org/2000/svg">
<path d="M32.5 64.5C52.98 64.5 64.5 52.98 64.5 32.5C64.5 12.02 52.98 0.5 32.5 0.5C12.02 0.5 0.5 12.02 0.5 32.5C0.5 52.98 12.02 64.5 32.5 64.5Z" fill="#00E5E5"/>
<g clip-path="url(#clip0_3069_11368)">
<path fill-rule="evenodd" clip-rule="evenodd" d="M38.7006 23.8305C38.4859 23.5549 38.2112 23.3319 37.8974 23.1785C37.5835 23.0251 37.2388 22.9453 36.8894 22.9453C36.5401 22.9453 36.1953 23.0251 35.8815 23.1785C35.5676 23.3319 35.2929 23.5549 35.0783 23.8305C34.3384 24.7743 33.831 25.8789 33.5971 27.0551C32.4216 27.2892 31.3176 27.7966 30.3743 28.5362C30.0986 28.7508 29.8756 29.0256 29.7222 29.3394C29.5688 29.6533 29.4891 29.998 29.4891 30.3474C29.4891 30.6967 29.5688 31.0414 29.7222 31.3553C29.8756 31.6692 30.0986 31.9439 30.3743 32.1585C31.288 32.8785 32.3749 33.3928 33.5971 33.6397C33.8308 34.8154 34.3382 35.9195 35.0783 36.8625C36.0057 38.0454 37.7731 38.0454 38.7006 36.8625C39.4406 35.9195 39.9481 34.8154 40.1817 33.6397C41.3573 33.4055 42.4613 32.8981 43.4046 32.1585C43.6802 31.9439 43.9032 31.6692 44.0566 31.3553C44.21 31.0414 44.2898 30.6967 44.2898 30.3474C44.2898 29.998 44.21 29.6533 44.0566 29.3394C43.9032 29.0256 43.6802 28.7508 43.4046 28.5362C42.4613 27.7966 41.3573 27.2892 40.1817 27.0551C39.9476 25.8795 39.4402 24.7755 38.7006 23.8322V23.8305Z" fill="black"/>
<path fill-rule="evenodd" clip-rule="evenodd" d="M26.7606 21.5577C26.6012 21.3536 26.3974 21.1885 26.1647 21.0749C25.932 20.9614 25.6764 20.9023 25.4174 20.9023C25.1585 20.9023 24.9029 20.9614 24.6702 21.0749C24.4374 21.1885 24.2336 21.3536 24.0743 21.5577C23.653 22.0951 23.3504 22.7155 23.1863 23.3783C22.5233 23.5434 21.9028 23.8473 21.3657 24.2697C21.1619 24.4291 20.9971 24.6328 20.8837 24.8654C20.7703 25.098 20.7114 25.3533 20.7114 25.612C20.7114 25.8707 20.7703 26.1261 20.8837 26.3587C20.9971 26.5912 21.1619 26.7949 21.3657 26.9543C21.8903 27.3657 22.5023 27.6726 23.1863 27.844C23.3577 28.5263 23.6629 29.14 24.0743 29.6646C24.2336 29.8687 24.4374 30.0338 24.6702 30.1474C24.9029 30.261 25.1585 30.32 25.4174 30.32C25.6764 30.32 25.932 30.261 26.1647 30.1474C26.3974 30.0338 26.6012 29.8687 26.7606 29.6646C27.172 29.14 27.4806 28.5263 27.6503 27.844C28.3133 27.6789 28.9338 27.3751 29.4709 26.9526C29.6747 26.7932 29.8395 26.5895 29.9529 26.3569C30.0662 26.1244 30.1252 25.869 30.1252 25.6103C30.1252 25.3516 30.0662 25.0962 29.9529 24.8637C29.8395 24.6311 29.6747 24.4274 29.4709 24.268C28.9336 23.8462 28.3132 23.543 27.6503 23.3783C27.4856 22.7154 27.1824 22.095 26.7606 21.5577ZM28.4851 32.5257C28.2957 32.2828 28.0533 32.0863 27.7764 31.9511C27.4996 31.816 27.1955 31.7457 26.8874 31.7457C26.5793 31.7457 26.2753 31.816 25.9984 31.9511C25.7216 32.0863 25.4792 32.2828 25.2897 32.5257C24.7103 33.2629 24.2886 34.1372 24.076 35.1109C23.0989 35.3252 22.228 35.7452 21.4909 36.3246C21.2476 36.5141 21.0508 36.7565 20.9155 37.0336C20.7801 37.3106 20.7097 37.6148 20.7097 37.9232C20.7097 38.2315 20.7801 38.5357 20.9155 38.8128C21.0508 39.0898 21.2476 39.3323 21.4909 39.5217C22.228 40.1012 23.1006 40.5212 24.076 40.7354C24.2886 41.7109 24.7103 42.5834 25.2897 43.3206C25.4792 43.5635 25.7216 43.76 25.9984 43.8952C26.2753 44.0304 26.5793 44.1006 26.8874 44.1006C27.1955 44.1006 27.4996 44.0304 27.7764 43.8952C28.0533 43.76 28.2957 43.5635 28.4851 43.3206C29.0646 42.5834 29.4863 41.7109 29.6989 40.7354C30.6414 40.5319 31.5253 40.1169 32.284 39.5217C32.5272 39.3323 32.724 39.0898 32.8594 38.8128C32.9948 38.5357 33.0651 38.2315 33.0651 37.9232C33.0651 37.6148 32.9948 37.3106 32.8594 37.0336C32.724 36.7565 32.5272 36.5141 32.284 36.3246C31.5253 35.7295 30.6414 35.3145 29.6989 35.1109C29.4953 34.1684 29.0803 33.2844 28.4851 32.5257Z" fill="#1E293B"/>
</g>
<defs>
<clipPath id="clip0_3069_11368">
<rect width="24" height="24" fill="white" transform="translate(20.5 20.5)"/>
</clipPath>
</defs>
</svg>
