<svg width="11" height="11" viewBox="0 0 11 11" fill="none" xmlns="http://www.w3.org/2000/svg">
<g clip-path="url(#clip0_329_12920)">
<path d="M5.35086 0.9375C3.66028 0.9375 2.29297 2.30482 2.29297 3.99539C2.29297 6.28881 5.35086 9.67434 5.35086 9.67434C5.35086 9.67434 8.40876 6.28881 8.40876 3.99539C8.40876 2.30482 7.04144 0.9375 5.35086 0.9375ZM3.16665 3.99539C3.16665 2.78971 4.14518 1.81118 5.35086 1.81118C6.55655 1.81118 7.53507 2.78971 7.53507 3.99539C7.53507 5.2535 6.27697 7.13629 5.35086 8.31139C4.44223 7.14502 3.16665 5.24039 3.16665 3.99539Z" fill="white"/>
<path d="M5.34992 5.08655C5.95307 5.08655 6.44202 4.5976 6.44202 3.99445C6.44202 3.3913 5.95307 2.90234 5.34992 2.90234C4.74676 2.90234 4.25781 3.3913 4.25781 3.99445C4.25781 4.5976 4.74676 5.08655 5.34992 5.08655Z" fill="white"/>
</g>
<defs>
<clipPath id="clip0_329_12920">
<rect width="10.4842" height="10.4842" fill="white" transform="translate(0.109375 0.0625)"/>
</clipPath>
</defs>
</svg>
