<svg width="21" height="21" viewBox="0 0 21 21" fill="none" xmlns="http://www.w3.org/2000/svg">
  <path d="M14.2012 5.65625H5.86784C3.91183 5.65625 2.32617 7.24191 2.32617 9.19792V14.1979C2.32617 16.1539 3.91183 17.7396 5.86784 17.7396H14.2012C16.1572 17.7396 17.7428 16.1539 17.7428 14.1979V9.19792C17.7428 7.24191 16.1572 5.65625 14.2012 5.65625Z" stroke="white" stroke-width="1.5"/>
  <path d="M10.0361 2.19531C12.061 2.19549 13.7021 3.83737 13.7021 5.8623C13.7021 6.26862 13.636 6.65841 13.5146 7.02246C13.5109 7.02445 13.5041 7.02826 13.4932 7.02832C13.4846 7.02832 13.4445 7.02611 13.3975 6.94922C13.3484 6.86864 13.3332 6.76475 13.3525 6.68652C13.4181 6.42207 13.4521 6.14584 13.4521 5.8623C13.4521 3.97544 11.923 2.44549 10.0361 2.44531C8.14916 2.44531 6.61914 3.97533 6.61914 5.8623C6.61917 6.14583 6.65417 6.42208 6.71973 6.68652C6.73906 6.76479 6.72296 6.86868 6.67383 6.94922C6.62736 7.02519 6.58831 7.02826 6.5791 7.02832C6.56776 7.02832 6.56031 7.02448 6.55664 7.02246C6.43529 6.65846 6.36918 6.26862 6.36914 5.8623C6.36914 3.83726 8.01109 2.19531 10.0361 2.19531Z" fill="white" stroke="white"/>
</svg>