<svg width="11" height="11" viewBox="0 0 11 11" fill="none" xmlns="http://www.w3.org/2000/svg">
<g clip-path="url(#clip0_329_12938)">
<path d="M5.85869 1.59137C3.63517 1.53021 1.81354 3.31689 1.81354 5.52295H1.03159C0.835012 5.52295 0.738907 5.75884 0.878697 5.89426L2.09749 7.11742C2.18485 7.20479 2.32027 7.20479 2.40764 7.11742L3.62643 5.89426C3.76185 5.75884 3.66575 5.52295 3.46917 5.52295H2.68722C2.68722 3.81926 4.07638 2.44321 5.7888 2.46505C7.41385 2.48689 8.78116 3.85421 8.80301 5.47926C8.82485 7.18731 7.4488 8.58084 5.74511 8.58084C5.0418 8.58084 4.3909 8.34058 3.87543 7.93431C3.70069 7.79889 3.45606 7.812 3.2988 7.96926C3.11533 8.15273 3.12843 8.46289 3.33375 8.62016C3.99775 9.14437 4.83211 9.45452 5.74511 9.45452C7.95117 9.45452 9.73785 7.63289 9.67669 5.40937C9.6199 3.36058 7.90748 1.64816 5.85869 1.59137ZM5.6359 3.77558C5.4568 3.77558 5.30827 3.9241 5.30827 4.10321V5.71079C5.30827 5.86368 5.39127 6.00784 5.52232 6.08647L6.88527 6.89463C7.04253 6.98637 7.24348 6.93395 7.33522 6.78105C7.42695 6.62379 7.37453 6.42284 7.22164 6.3311L5.96353 5.5841V4.09884C5.96353 3.9241 5.81501 3.77558 5.6359 3.77558Z" fill="black"/>
</g>
<defs>
<clipPath id="clip0_329_12938">
<rect width="10.4842" height="10.4842" fill="white" transform="translate(0.0625 0.28125)"/>
</clipPath>
</defs>
</svg>
