<svg width="16" height="16" viewBox="0 0 16 16" fill="none" xmlns="http://www.w3.org/2000/svg">
<g clip-path="url(#clip0_329_13111)">
<path d="M9.10884 2.29516C5.91964 2.20744 3.30688 4.77008 3.30688 7.93421H2.18534C1.90338 7.93421 1.76554 8.27256 1.96604 8.46679L3.71415 10.2212C3.83946 10.3465 4.03369 10.3465 4.15901 10.2212L5.90711 8.46679C6.10135 8.27256 5.9635 7.93421 5.68155 7.93421H4.56C4.56 5.49062 6.55247 3.51695 9.00859 3.54828C11.3394 3.57961 13.3005 5.54075 13.3319 7.87156C13.3632 10.3214 11.3895 12.3201 8.94594 12.3201C7.93717 12.3201 7.0036 11.9755 6.26425 11.3928C6.01363 11.1986 5.66275 11.2174 5.43719 11.443C5.17404 11.7061 5.19283 12.151 5.48732 12.3765C6.43969 13.1284 7.63642 13.5733 8.94594 13.5733C12.1101 13.5733 14.6727 10.9605 14.585 7.77131C14.5035 4.83273 12.0474 2.37661 9.10884 2.29516ZM8.7893 5.42796C8.53241 5.42796 8.31937 5.641 8.31937 5.89789V8.20363C8.31937 8.42293 8.43842 8.6297 8.62639 8.74248L10.5813 9.90162C10.8068 10.0332 11.095 9.95801 11.2266 9.73871C11.3582 9.51315 11.283 9.22493 11.0637 9.09335L9.25922 8.02193V5.89162C9.25922 5.641 9.04619 5.42796 8.7893 5.42796Z" fill="white"/>
</g>
<defs>
<clipPath id="clip0_329_13111">
<rect width="15.0375" height="15.0375" fill="white" transform="translate(0.800781 0.417969)"/>
</clipPath>
</defs>
</svg>
