<svg width="40" height="41" viewBox="0 0 40 41" fill="none" xmlns="http://www.w3.org/2000/svg">
<path d="M20 9.67188C21.2805 9.67188 22.5086 10.1805 23.4141 11.0859C24.3195 11.9914 24.8281 13.2195 24.8281 14.5V20.5L24.8223 20.7393C24.7618 21.9321 24.2607 23.0635 23.4121 23.9121C22.507 24.8172 21.28 25.3266 20 25.3281L19.7607 25.3223C18.5679 25.2618 17.4365 24.7607 16.5879 23.9121C15.6828 23.007 15.1734 21.78 15.1719 20.5V14.5C15.1719 13.2195 15.6805 11.9914 16.5859 11.0859C17.4914 10.1805 18.7195 9.67188 20 9.67188ZM20 11.8281C19.2914 11.8281 18.6114 12.1093 18.1104 12.6104C17.6093 13.1114 17.3281 13.7914 17.3281 14.5V20.5C17.3281 21.2086 17.6093 21.8886 18.1104 22.3896C18.6114 22.8907 19.2914 23.1719 20 23.1719C20.7086 23.1719 21.3886 22.8907 21.8896 22.3896C22.3907 21.8886 22.6719 21.2086 22.6719 20.5V14.5C22.6719 13.7914 22.3907 13.1114 21.8896 12.6104C21.3886 12.1093 20.7086 11.8281 20 11.8281ZM18.9219 29.0107L18.8809 29.0059C16.8185 28.7317 14.9255 27.7175 13.5537 26.1533C12.1821 24.5891 11.4245 22.5804 11.4219 20.5C11.4219 20.2141 11.5351 19.9395 11.7373 19.7373C11.9395 19.5351 12.2141 19.4219 12.5 19.4219C12.7859 19.4219 13.0605 19.5351 13.2627 19.7373C13.4649 19.9395 13.5781 20.2141 13.5781 20.5C13.5781 22.2032 14.2546 23.8367 15.459 25.041C16.6633 26.2453 18.2968 26.9219 20 26.9219C21.7032 26.9219 23.3367 26.2453 24.541 25.041C25.7454 23.8367 26.4219 22.2032 26.4219 20.5C26.4219 20.2141 26.5351 19.9395 26.7373 19.7373C26.9395 19.5351 27.2141 19.4219 27.5 19.4219C27.7859 19.4219 28.0605 19.5351 28.2627 19.7373C28.4649 19.9395 28.5781 20.2141 28.5781 20.5L28.5684 20.8887C28.478 22.8295 27.7323 24.6868 26.4463 26.1533C25.0745 27.7175 23.1815 28.7317 21.1191 29.0059L21.0781 29.0107V31C21.0781 31.2859 20.9649 31.5605 20.7627 31.7627C20.5605 31.9649 20.2859 32.0781 20 32.0781C19.7141 32.0781 19.4395 31.9649 19.2373 31.7627C19.0351 31.5605 18.9219 31.2859 18.9219 31V29.0107Z" fill="#1E293B" stroke="#1E293B" stroke-width="0.09375"/>
</svg>
