<svg width="12" height="11" viewBox="0 0 12 11" fill="none" xmlns="http://www.w3.org/2000/svg">
<g clip-path="url(#clip0_329_12931)">
<path d="M5.80936 0.9375C3.398 0.9375 1.44531 2.89455 1.44531 5.30592C1.44531 7.71729 3.398 9.67434 5.80936 9.67434C8.2251 9.67434 10.1822 7.71729 10.1822 5.30592C10.1822 2.89455 8.2251 0.9375 5.80936 0.9375ZM5.81373 8.80065C3.88289 8.80065 2.319 7.23676 2.319 5.30592C2.319 3.37508 3.88289 1.81118 5.81373 1.81118C7.74457 1.81118 9.30847 3.37508 9.30847 5.30592C9.30847 7.23676 7.74457 8.80065 5.81373 8.80065ZM5.71763 3.12171H5.69142C5.51668 3.12171 5.37689 3.2615 5.37689 3.43624V5.49813C5.37689 5.65102 5.45552 5.79518 5.59094 5.87381L7.40384 6.96155C7.55236 7.04892 7.74457 7.00523 7.83194 6.85671C7.92368 6.70818 7.87563 6.5116 7.72273 6.42423L6.03215 5.4195V3.43624C6.03215 3.2615 5.89236 3.12171 5.71763 3.12171Z" fill="white"/>
</g>
<defs>
<clipPath id="clip0_329_12931">
<rect width="10.4842" height="10.4842" fill="white" transform="translate(0.566406 0.0625)"/>
</clipPath>
</defs>
</svg>
