<svg width="18" height="17" viewBox="0 0 18 17" fill="none" xmlns="http://www.w3.org/2000/svg">
<path d="M11.7852 2.1607L5.45764 4.26288C1.20422 5.68536 1.20422 8.00476 5.45764 9.42023L7.33559 10.0439L7.95924 11.9218C9.3747 16.1752 11.7011 16.1752 13.1166 11.9218L15.2258 5.60127C16.1648 2.76332 14.6232 1.21472 11.7852 2.1607ZM12.0094 5.93061L9.34668 8.60739C9.24157 8.7125 9.10843 8.76155 8.97529 8.76155C8.84215 8.76155 8.70901 8.7125 8.6039 8.60739C8.40069 8.40418 8.40069 8.06783 8.6039 7.86462L11.2667 5.18784C11.4699 4.98463 11.8062 4.98463 12.0094 5.18784C12.2126 5.39105 12.2126 5.7274 12.0094 5.93061Z" fill="white"/>
</svg>
