<svg width="40" height="41" viewBox="0 0 40 41" fill="none" xmlns="http://www.w3.org/2000/svg">
<rect y="0.5" width="40" height="40" rx="20" fill="#1E293B"/>
<path d="M19.998 11.1719C20.1398 11.1719 20.2802 11.1996 20.4111 11.2539C20.5096 11.2948 20.6016 11.3504 20.6836 11.418L20.7617 11.4893L27.5117 18.2393C27.6121 18.3393 27.6917 18.458 27.7461 18.5889C27.8005 18.7199 27.8291 18.861 27.8291 19.0029C27.8291 19.1448 27.8005 19.285 27.7461 19.416C27.7053 19.5143 27.6503 19.6057 27.583 19.6875L27.5117 19.7666C27.4116 19.8671 27.2922 19.9466 27.1611 20.001C27.0301 20.0553 26.8899 20.084 26.748 20.084C26.6062 20.084 26.4659 20.0553 26.335 20.001C26.2039 19.9466 26.0845 19.8671 25.9844 19.7666L21.0771 14.8594V28.7539C21.0771 29.0396 20.9636 29.3135 20.7617 29.5156C20.5595 29.7178 20.2849 29.832 19.999 29.832C19.7131 29.832 19.4385 29.7178 19.2363 29.5156C19.0344 29.3135 18.921 29.0396 18.9209 28.7539V14.8594L18.8408 14.9395L14.0117 19.7666C13.8092 19.9691 13.5345 20.083 13.248 20.083C12.9616 20.083 12.6869 19.9691 12.4844 19.7666C12.2819 19.5641 12.168 19.2893 12.168 19.0029C12.168 18.7165 12.2819 18.4418 12.4844 18.2393L19.2344 11.4893C19.3345 11.3887 19.4539 11.3083 19.585 11.2539C19.7159 11.1996 19.8563 11.1719 19.998 11.1719Z" fill="white" stroke="white" stroke-width="0.09375"/>
</svg>
