<svg width="26" height="26" viewBox="0 0 26 26" fill="none" xmlns="http://www.w3.org/2000/svg">
<path d="M10.2438 4.94834C8.07926 5.68977 6.23317 7.31194 5.20811 9.35708C4.84984 10.0637 4.59109 10.815 4.43683 11.5913C4.04373 13.522 4.31741 15.5771 5.20811 17.3386C5.78533 18.488 6.61632 19.5081 7.62147 20.3043C8.57189 21.0606 9.67656 21.6179 10.8509 21.9314C12.3288 22.3295 13.9062 22.3196 15.399 21.9812C16.7475 21.6727 18.0213 21.0258 19.0364 20.0903C20.1112 19.1001 20.8775 17.8013 21.2856 16.4031C21.7284 14.8755 21.7881 13.2483 21.5095 11.6858C18.7229 11.6858 15.9364 11.6858 13.1448 11.6858C13.1448 12.8403 13.1448 13.9997 13.1448 15.1541C14.7571 15.1541 16.3743 15.1541 17.9865 15.1541C17.7974 16.2638 17.1406 17.2739 16.2051 17.9009C15.6179 18.294 14.9461 18.5527 14.2495 18.6721C13.5479 18.7916 12.8264 18.8065 12.1297 18.6672C11.4182 18.5278 10.7414 18.2293 10.1493 17.8113C9.20384 17.1495 8.48232 16.1742 8.11409 15.0845C7.73592 13.9748 7.73094 12.7358 8.11409 11.6261C8.37782 10.8449 8.82069 10.1184 9.40288 9.53124C10.1194 8.79479 11.0499 8.27231 12.0551 8.05834C12.9159 7.87423 13.8216 7.90906 14.6625 8.16284C15.3791 8.38178 16.0359 8.76991 16.5783 9.28741C17.1256 8.74503 17.668 8.19767 18.2154 7.65529C18.499 7.3617 18.8025 7.08305 19.0812 6.77951C18.2552 6.01321 17.2799 5.39618 16.22 5.00805C14.3192 4.29649 12.1646 4.28156 10.2438 4.94834Z" fill="white"/>
<path d="M10.2456 4.94892C12.1663 4.28213 14.3209 4.29706 16.2317 5.00365C17.2916 5.39178 18.2619 6.0088 19.0929 6.77511C18.8143 7.07367 18.5157 7.3573 18.2271 7.65088C17.6797 8.19327 17.1373 8.74063 16.59 9.28301C16.0476 8.76551 15.3908 8.3724 14.6742 8.15844C13.8333 7.90466 12.9276 7.86983 12.0668 8.05394C11.0616 8.26791 10.1311 8.79536 9.41459 9.52684C8.8324 10.114 8.38953 10.8405 8.1258 11.6217C7.15548 10.8704 6.18516 10.114 5.21484 9.36263C6.23492 7.31252 8.08102 5.69034 10.2456 4.94892Z" fill="#E94435"/>
<path d="M4.43683 11.5936C4.59109 10.8173 4.85482 10.066 5.20811 9.35938C6.17843 10.1108 7.14875 10.8671 8.11907 11.6185C7.73592 12.7281 7.7409 13.9672 8.11907 15.0768C7.14875 15.8282 6.17843 16.5845 5.20811 17.3359C4.31741 15.5844 4.04373 13.5243 4.43683 11.5936Z" fill="#F8BB15"/>
<path d="M13.1492 11.6836C15.9358 11.6836 18.7224 11.6836 21.5139 11.6836C21.7925 13.2461 21.7328 14.8732 21.29 16.4008C20.8819 17.7991 20.1156 19.1028 19.0408 20.0881C18.1004 19.3566 17.1549 18.6251 16.2194 17.8936C17.1549 17.2716 17.8117 16.2565 18.0008 15.1469C16.3886 15.1469 14.7714 15.1469 13.1592 15.1469C13.1443 13.9974 13.1492 12.843 13.1492 11.6836Z" fill="#547DBE"/>
<path d="M5.20703 17.3411C6.17735 16.5898 7.14767 15.8334 8.11799 15.082C8.48621 16.1768 9.20773 17.1471 10.1532 17.8089C10.7453 18.2269 11.4221 18.5204 12.1336 18.6648C12.8303 18.8041 13.5568 18.7892 14.2534 18.6697C14.95 18.5503 15.6218 18.2916 16.209 17.8984C17.1494 18.6299 18.0949 19.3614 19.0304 20.0929C18.0153 21.0333 16.7414 21.6752 15.3929 21.9837C13.9051 22.3221 12.3277 22.3321 10.8448 21.934C9.6705 21.6205 8.56583 21.0632 7.61541 20.3068C6.61524 19.5057 5.78425 18.4856 5.20703 17.3411Z" fill="#34A751"/>
</svg>
